<mxfile host="app.diagrams.net" modified="2022-02-07T01:26:36.236Z" agent="5.0 (X11; Linux x86_64) AppleWebKit/537.36 (KHTML, like Gecko) Chrome/97.0.4692.99 Safari/537.36" etag="n84vpIWoJmXFRFjwJT0o" version="16.5.3" type="github">
  <diagram id="R2lEEEUBdFMjLlhIrx00" name="Page-1">
    <mxGraphModel dx="579" dy="329" grid="1" gridSize="10" guides="1" tooltips="1" connect="1" arrows="1" fold="1" page="1" pageScale="1" pageWidth="850" pageHeight="1100" math="0" shadow="0" extFonts="Permanent Marker^https://fonts.googleapis.com/css?family=Permanent+Marker">
      <root>
        <mxCell id="0" />
        <mxCell id="1" parent="0" />
        <mxCell id="58HCJ67MAkcOVpJuxe-s-11" value="Comunidad" style="rounded=1;arcSize=10;whiteSpace=wrap;html=1;align=center;fontFamily=Itim;fontSource=https%3A%2F%2Ffonts.googleapis.com%2Fcss%3Ffamily%3DItim;fillColor=#d0cee2;strokeColor=#56517e;" vertex="1" parent="1">
          <mxGeometry x="355" y="360" width="100" height="40" as="geometry" />
        </mxCell>
        <mxCell id="58HCJ67MAkcOVpJuxe-s-12" value="Id" style="ellipse;whiteSpace=wrap;html=1;align=center;fontFamily=Itim;fontSource=https%3A%2F%2Ffonts.googleapis.com%2Fcss%3Ffamily%3DItim;fillColor=#fff2cc;strokeColor=#d6b656;" vertex="1" parent="1">
          <mxGeometry x="280" y="410" width="60" height="40" as="geometry" />
        </mxCell>
        <mxCell id="58HCJ67MAkcOVpJuxe-s-13" value="Nombre" style="ellipse;whiteSpace=wrap;html=1;align=center;fontFamily=Itim;fontSource=https%3A%2F%2Ffonts.googleapis.com%2Fcss%3Ffamily%3DItim;fillColor=#f5f5f5;fontColor=#333333;strokeColor=#666666;" vertex="1" parent="1">
          <mxGeometry x="280" y="360" width="60" height="40" as="geometry" />
        </mxCell>
        <mxCell id="58HCJ67MAkcOVpJuxe-s-14" value="Tipo" style="ellipse;whiteSpace=wrap;html=1;align=center;fontFamily=Itim;fontSource=https%3A%2F%2Ffonts.googleapis.com%2Fcss%3Ffamily%3DItim;fillColor=#f5f5f5;fontColor=#333333;strokeColor=#666666;" vertex="1" parent="1">
          <mxGeometry x="280" y="310" width="60" height="40" as="geometry" />
        </mxCell>
        <mxCell id="58HCJ67MAkcOVpJuxe-s-15" value="PaÃ­s" style="ellipse;whiteSpace=wrap;html=1;align=center;fontFamily=Itim;fontSource=https%3A%2F%2Ffonts.googleapis.com%2Fcss%3Ffamily%3DItim;fillColor=#f5f5f5;fontColor=#333333;strokeColor=#666666;" vertex="1" parent="1">
          <mxGeometry x="343" y="290" width="60" height="40" as="geometry" />
        </mxCell>
        <mxCell id="58HCJ67MAkcOVpJuxe-s-16" value="Estado" style="ellipse;whiteSpace=wrap;html=1;align=center;fontFamily=Itim;fontSource=https%3A%2F%2Ffonts.googleapis.com%2Fcss%3Ffamily%3DItim;fillColor=#f5f5f5;fontColor=#333333;strokeColor=#666666;" vertex="1" parent="1">
          <mxGeometry x="407" y="290" width="60" height="40" as="geometry" />
        </mxCell>
        <mxCell id="58HCJ67MAkcOVpJuxe-s-17" value="Redes sociales" style="ellipse;whiteSpace=wrap;html=1;align=center;fontFamily=Itim;fontSource=https%3A%2F%2Ffonts.googleapis.com%2Fcss%3Ffamily%3DItim;fillColor=#f5f5f5;fontColor=#333333;strokeColor=#666666;" vertex="1" parent="1">
          <mxGeometry x="470" y="310" width="60" height="40" as="geometry" />
        </mxCell>
        <mxCell id="58HCJ67MAkcOVpJuxe-s-18" value="" style="endArrow=none;html=1;rounded=0;fontFamily=Itim;fontSource=https%3A%2F%2Ffonts.googleapis.com%2Fcss%3Ffamily%3DItim;exitX=0;exitY=1;exitDx=0;exitDy=0;entryX=1;entryY=0;entryDx=0;entryDy=0;" edge="1" parent="1" source="58HCJ67MAkcOVpJuxe-s-11" target="58HCJ67MAkcOVpJuxe-s-12">
          <mxGeometry relative="1" as="geometry">
            <mxPoint x="350" y="310" as="sourcePoint" />
            <mxPoint x="510" y="310" as="targetPoint" />
          </mxGeometry>
        </mxCell>
        <mxCell id="58HCJ67MAkcOVpJuxe-s-20" value="" style="endArrow=none;html=1;rounded=0;fontFamily=Itim;fontSource=https%3A%2F%2Ffonts.googleapis.com%2Fcss%3Ffamily%3DItim;exitX=1;exitY=0.5;exitDx=0;exitDy=0;entryX=0;entryY=0.5;entryDx=0;entryDy=0;" edge="1" parent="1" source="58HCJ67MAkcOVpJuxe-s-13" target="58HCJ67MAkcOVpJuxe-s-11">
          <mxGeometry relative="1" as="geometry">
            <mxPoint x="350" y="310" as="sourcePoint" />
            <mxPoint x="510" y="310" as="targetPoint" />
          </mxGeometry>
        </mxCell>
        <mxCell id="58HCJ67MAkcOVpJuxe-s-21" value="" style="endArrow=none;html=1;rounded=0;fontFamily=Itim;fontSource=https%3A%2F%2Ffonts.googleapis.com%2Fcss%3Ffamily%3DItim;exitX=1;exitY=1;exitDx=0;exitDy=0;entryX=0;entryY=0;entryDx=0;entryDy=0;" edge="1" parent="1" source="58HCJ67MAkcOVpJuxe-s-14" target="58HCJ67MAkcOVpJuxe-s-11">
          <mxGeometry relative="1" as="geometry">
            <mxPoint x="350" y="310" as="sourcePoint" />
            <mxPoint x="510" y="310" as="targetPoint" />
          </mxGeometry>
        </mxCell>
        <mxCell id="58HCJ67MAkcOVpJuxe-s-22" value="" style="endArrow=none;html=1;rounded=0;fontFamily=Itim;fontSource=https%3A%2F%2Ffonts.googleapis.com%2Fcss%3Ffamily%3DItim;exitX=0.5;exitY=1;exitDx=0;exitDy=0;entryX=0.25;entryY=0;entryDx=0;entryDy=0;" edge="1" parent="1" source="58HCJ67MAkcOVpJuxe-s-15" target="58HCJ67MAkcOVpJuxe-s-11">
          <mxGeometry relative="1" as="geometry">
            <mxPoint x="350" y="310" as="sourcePoint" />
            <mxPoint x="510" y="310" as="targetPoint" />
          </mxGeometry>
        </mxCell>
        <mxCell id="58HCJ67MAkcOVpJuxe-s-23" value="" style="endArrow=none;html=1;rounded=0;fontFamily=Itim;fontSource=https%3A%2F%2Ffonts.googleapis.com%2Fcss%3Ffamily%3DItim;exitX=0.75;exitY=0;exitDx=0;exitDy=0;entryX=0.5;entryY=1;entryDx=0;entryDy=0;" edge="1" parent="1" source="58HCJ67MAkcOVpJuxe-s-11" target="58HCJ67MAkcOVpJuxe-s-16">
          <mxGeometry relative="1" as="geometry">
            <mxPoint x="350" y="310" as="sourcePoint" />
            <mxPoint x="510" y="310" as="targetPoint" />
          </mxGeometry>
        </mxCell>
        <mxCell id="58HCJ67MAkcOVpJuxe-s-24" value="" style="endArrow=none;html=1;rounded=0;fontFamily=Itim;fontSource=https%3A%2F%2Ffonts.googleapis.com%2Fcss%3Ffamily%3DItim;exitX=1;exitY=0;exitDx=0;exitDy=0;entryX=0.072;entryY=0.85;entryDx=0;entryDy=0;entryPerimeter=0;" edge="1" parent="1" source="58HCJ67MAkcOVpJuxe-s-11" target="58HCJ67MAkcOVpJuxe-s-17">
          <mxGeometry relative="1" as="geometry">
            <mxPoint x="350" y="310" as="sourcePoint" />
            <mxPoint x="510" y="310" as="targetPoint" />
          </mxGeometry>
        </mxCell>
        <mxCell id="58HCJ67MAkcOVpJuxe-s-27" value="Realizan" style="shape=rhombus;perimeter=rhombusPerimeter;whiteSpace=wrap;html=1;align=center;fontFamily=Itim;fontSource=https%3A%2F%2Ffonts.googleapis.com%2Fcss%3Ffamily%3DItim;fillColor=#ffe6cc;strokeColor=#d79b00;" vertex="1" parent="1">
          <mxGeometry x="370" y="430" width="70" height="60" as="geometry" />
        </mxCell>
        <mxCell id="58HCJ67MAkcOVpJuxe-s-28" value="" style="endArrow=none;html=1;rounded=0;fontFamily=Itim;fontSource=https%3A%2F%2Ffonts.googleapis.com%2Fcss%3Ffamily%3DItim;exitX=0.5;exitY=1;exitDx=0;exitDy=0;entryX=0.5;entryY=0;entryDx=0;entryDy=0;" edge="1" parent="1" source="58HCJ67MAkcOVpJuxe-s-11" target="58HCJ67MAkcOVpJuxe-s-27">
          <mxGeometry relative="1" as="geometry">
            <mxPoint x="350" y="420" as="sourcePoint" />
            <mxPoint x="510" y="420" as="targetPoint" />
          </mxGeometry>
        </mxCell>
        <mxCell id="58HCJ67MAkcOVpJuxe-s-29" value="Actividades" style="rounded=1;arcSize=10;whiteSpace=wrap;html=1;align=center;fontFamily=Itim;fontSource=https%3A%2F%2Ffonts.googleapis.com%2Fcss%3Ffamily%3DItim;fillColor=#d0cee2;strokeColor=#56517e;" vertex="1" parent="1">
          <mxGeometry x="355" y="520" width="100" height="40" as="geometry" />
        </mxCell>
        <mxCell id="58HCJ67MAkcOVpJuxe-s-30" value="" style="endArrow=none;html=1;rounded=0;fontFamily=Itim;fontSource=https%3A%2F%2Ffonts.googleapis.com%2Fcss%3Ffamily%3DItim;exitX=0.5;exitY=1;exitDx=0;exitDy=0;entryX=0.5;entryY=0;entryDx=0;entryDy=0;" edge="1" parent="1" source="58HCJ67MAkcOVpJuxe-s-27" target="58HCJ67MAkcOVpJuxe-s-29">
          <mxGeometry relative="1" as="geometry">
            <mxPoint x="350" y="420" as="sourcePoint" />
            <mxPoint x="510" y="420" as="targetPoint" />
          </mxGeometry>
        </mxCell>
        <mxCell id="58HCJ67MAkcOVpJuxe-s-31" value="Id" style="ellipse;whiteSpace=wrap;html=1;align=center;fontFamily=Itim;fontSource=https%3A%2F%2Ffonts.googleapis.com%2Fcss%3Ffamily%3DItim;fillColor=#fff2cc;strokeColor=#d6b656;" vertex="1" parent="1">
          <mxGeometry x="280" y="520" width="60" height="40" as="geometry" />
        </mxCell>
        <mxCell id="58HCJ67MAkcOVpJuxe-s-32" value="Nombre" style="ellipse;whiteSpace=wrap;html=1;align=center;fontFamily=Itim;fontSource=https%3A%2F%2Ffonts.googleapis.com%2Fcss%3Ffamily%3DItim;fillColor=#f5f5f5;fontColor=#333333;strokeColor=#666666;" vertex="1" parent="1">
          <mxGeometry x="280" y="570" width="60" height="40" as="geometry" />
        </mxCell>
        <mxCell id="58HCJ67MAkcOVpJuxe-s-33" value="Objetivo" style="ellipse;whiteSpace=wrap;html=1;align=center;fontFamily=Itim;fontSource=https%3A%2F%2Ffonts.googleapis.com%2Fcss%3Ffamily%3DItim;fillColor=#f5f5f5;fontColor=#333333;strokeColor=#666666;" vertex="1" parent="1">
          <mxGeometry x="343" y="580" width="60" height="40" as="geometry" />
        </mxCell>
        <mxCell id="58HCJ67MAkcOVpJuxe-s-34" value="Fecha" style="ellipse;whiteSpace=wrap;html=1;align=center;fontFamily=Itim;fontSource=https%3A%2F%2Ffonts.googleapis.com%2Fcss%3Ffamily%3DItim;fillColor=#f5f5f5;fontColor=#333333;strokeColor=#666666;" vertex="1" parent="1">
          <mxGeometry x="407" y="580" width="60" height="40" as="geometry" />
        </mxCell>
        <mxCell id="58HCJ67MAkcOVpJuxe-s-35" value="Hora" style="ellipse;whiteSpace=wrap;html=1;align=center;fontFamily=Itim;fontSource=https%3A%2F%2Ffonts.googleapis.com%2Fcss%3Ffamily%3DItim;fillColor=#f5f5f5;fontColor=#333333;strokeColor=#666666;" vertex="1" parent="1">
          <mxGeometry x="470" y="570" width="60" height="40" as="geometry" />
        </mxCell>
        <mxCell id="58HCJ67MAkcOVpJuxe-s-36" value="Medio" style="ellipse;whiteSpace=wrap;html=1;align=center;fontFamily=Itim;fontSource=https%3A%2F%2Ffonts.googleapis.com%2Fcss%3Ffamily%3DItim;fillColor=#f5f5f5;fontColor=#333333;strokeColor=#666666;" vertex="1" parent="1">
          <mxGeometry x="468" y="520" width="60" height="40" as="geometry" />
        </mxCell>
        <mxCell id="58HCJ67MAkcOVpJuxe-s-37" value="" style="endArrow=none;html=1;rounded=0;fontFamily=Itim;fontSource=https%3A%2F%2Ffonts.googleapis.com%2Fcss%3Ffamily%3DItim;exitX=1;exitY=0.5;exitDx=0;exitDy=0;entryX=0;entryY=0.5;entryDx=0;entryDy=0;" edge="1" parent="1" source="58HCJ67MAkcOVpJuxe-s-31" target="58HCJ67MAkcOVpJuxe-s-29">
          <mxGeometry relative="1" as="geometry">
            <mxPoint x="350" y="530" as="sourcePoint" />
            <mxPoint x="510" y="530" as="targetPoint" />
          </mxGeometry>
        </mxCell>
        <mxCell id="58HCJ67MAkcOVpJuxe-s-38" value="" style="endArrow=none;html=1;rounded=0;fontFamily=Itim;fontSource=https%3A%2F%2Ffonts.googleapis.com%2Fcss%3Ffamily%3DItim;exitX=1;exitY=0.5;exitDx=0;exitDy=0;entryX=0;entryY=0.5;entryDx=0;entryDy=0;" edge="1" parent="1" source="58HCJ67MAkcOVpJuxe-s-29" target="58HCJ67MAkcOVpJuxe-s-36">
          <mxGeometry relative="1" as="geometry">
            <mxPoint x="350" y="530" as="sourcePoint" />
            <mxPoint x="510" y="530" as="targetPoint" />
          </mxGeometry>
        </mxCell>
        <mxCell id="58HCJ67MAkcOVpJuxe-s-39" value="" style="endArrow=none;html=1;rounded=0;fontFamily=Itim;fontSource=https%3A%2F%2Ffonts.googleapis.com%2Fcss%3Ffamily%3DItim;exitX=1;exitY=0;exitDx=0;exitDy=0;entryX=0;entryY=1;entryDx=0;entryDy=0;" edge="1" parent="1" source="58HCJ67MAkcOVpJuxe-s-32" target="58HCJ67MAkcOVpJuxe-s-29">
          <mxGeometry relative="1" as="geometry">
            <mxPoint x="350" y="530" as="sourcePoint" />
            <mxPoint x="510" y="530" as="targetPoint" />
          </mxGeometry>
        </mxCell>
        <mxCell id="58HCJ67MAkcOVpJuxe-s-40" value="" style="endArrow=none;html=1;rounded=0;fontFamily=Itim;fontSource=https%3A%2F%2Ffonts.googleapis.com%2Fcss%3Ffamily%3DItim;exitX=0.25;exitY=1;exitDx=0;exitDy=0;entryX=0.5;entryY=0;entryDx=0;entryDy=0;" edge="1" parent="1" source="58HCJ67MAkcOVpJuxe-s-29" target="58HCJ67MAkcOVpJuxe-s-33">
          <mxGeometry relative="1" as="geometry">
            <mxPoint x="350" y="530" as="sourcePoint" />
            <mxPoint x="510" y="530" as="targetPoint" />
          </mxGeometry>
        </mxCell>
        <mxCell id="58HCJ67MAkcOVpJuxe-s-41" value="" style="endArrow=none;html=1;rounded=0;fontFamily=Itim;fontSource=https%3A%2F%2Ffonts.googleapis.com%2Fcss%3Ffamily%3DItim;exitX=0.75;exitY=1;exitDx=0;exitDy=0;entryX=0.5;entryY=0;entryDx=0;entryDy=0;" edge="1" parent="1" source="58HCJ67MAkcOVpJuxe-s-29" target="58HCJ67MAkcOVpJuxe-s-34">
          <mxGeometry relative="1" as="geometry">
            <mxPoint x="350" y="530" as="sourcePoint" />
            <mxPoint x="510" y="530" as="targetPoint" />
          </mxGeometry>
        </mxCell>
        <mxCell id="58HCJ67MAkcOVpJuxe-s-42" value="" style="endArrow=none;html=1;rounded=0;fontFamily=Itim;fontSource=https%3A%2F%2Ffonts.googleapis.com%2Fcss%3Ffamily%3DItim;exitX=1;exitY=1;exitDx=0;exitDy=0;entryX=0;entryY=0;entryDx=0;entryDy=0;" edge="1" parent="1" source="58HCJ67MAkcOVpJuxe-s-29" target="58HCJ67MAkcOVpJuxe-s-35">
          <mxGeometry relative="1" as="geometry">
            <mxPoint x="350" y="530" as="sourcePoint" />
            <mxPoint x="510" y="530" as="targetPoint" />
          </mxGeometry>
        </mxCell>
        <mxCell id="58HCJ67MAkcOVpJuxe-s-44" value="Detalle" style="ellipse;whiteSpace=wrap;html=1;align=center;fontFamily=Itim;fontSource=https%3A%2F%2Ffonts.googleapis.com%2Fcss%3Ffamily%3DItim;fillColor=#f5f5f5;fontColor=#333333;strokeColor=#666666;" vertex="1" parent="1">
          <mxGeometry x="467" y="470" width="60" height="40" as="geometry" />
        </mxCell>
        <mxCell id="58HCJ67MAkcOVpJuxe-s-46" value="" style="endArrow=none;html=1;rounded=0;fontFamily=Itim;fontSource=https%3A%2F%2Ffonts.googleapis.com%2Fcss%3Ffamily%3DItim;exitX=1;exitY=0;exitDx=0;exitDy=0;entryX=0;entryY=1;entryDx=0;entryDy=0;" edge="1" parent="1" source="58HCJ67MAkcOVpJuxe-s-29" target="58HCJ67MAkcOVpJuxe-s-44">
          <mxGeometry relative="1" as="geometry">
            <mxPoint x="350" y="510" as="sourcePoint" />
            <mxPoint x="510" y="510" as="targetPoint" />
          </mxGeometry>
        </mxCell>
        <mxCell id="58HCJ67MAkcOVpJuxe-s-48" value="Tienen" style="shape=rhombus;perimeter=rhombusPerimeter;whiteSpace=wrap;html=1;align=center;fontFamily=Itim;fontSource=https%3A%2F%2Ffonts.googleapis.com%2Fcss%3Ffamily%3DItim;fillColor=#ffe6cc;strokeColor=#d79b00;" vertex="1" parent="1">
          <mxGeometry x="528" y="350" width="70" height="60" as="geometry" />
        </mxCell>
        <mxCell id="58HCJ67MAkcOVpJuxe-s-50" value="Personas" style="rounded=1;arcSize=10;whiteSpace=wrap;html=1;align=center;fontFamily=Itim;fontSource=https%3A%2F%2Ffonts.googleapis.com%2Fcss%3Ffamily%3DItim;fillColor=#d0cee2;strokeColor=#56517e;" vertex="1" parent="1">
          <mxGeometry x="670" y="360" width="100" height="40" as="geometry" />
        </mxCell>
        <mxCell id="58HCJ67MAkcOVpJuxe-s-52" value="" style="endArrow=none;html=1;rounded=0;fontFamily=Itim;fontSource=https%3A%2F%2Ffonts.googleapis.com%2Fcss%3Ffamily%3DItim;exitX=1;exitY=0.5;exitDx=0;exitDy=0;entryX=0;entryY=0.5;entryDx=0;entryDy=0;" edge="1" parent="1" source="58HCJ67MAkcOVpJuxe-s-11" target="58HCJ67MAkcOVpJuxe-s-48">
          <mxGeometry relative="1" as="geometry">
            <mxPoint x="460" y="400" as="sourcePoint" />
            <mxPoint x="620" y="400" as="targetPoint" />
          </mxGeometry>
        </mxCell>
        <mxCell id="58HCJ67MAkcOVpJuxe-s-53" value="" style="endArrow=none;html=1;rounded=0;fontFamily=Itim;fontSource=https%3A%2F%2Ffonts.googleapis.com%2Fcss%3Ffamily%3DItim;exitX=1;exitY=0.5;exitDx=0;exitDy=0;entryX=0;entryY=0.5;entryDx=0;entryDy=0;" edge="1" parent="1" source="58HCJ67MAkcOVpJuxe-s-48" target="58HCJ67MAkcOVpJuxe-s-50">
          <mxGeometry relative="1" as="geometry">
            <mxPoint x="460" y="400" as="sourcePoint" />
            <mxPoint x="620" y="400" as="targetPoint" />
          </mxGeometry>
        </mxCell>
      </root>
    </mxGraphModel>
  </diagram>
</mxfile>
